<?xml version="1.0" standalone="no"?>
<!DOCTYPE svg PUBLIC "-//W3C//DTD SVG 20010904//EN"
 "http://www.w3.org/TR/2001/REC-SVG-20010904/DTD/svg10.dtd">
<svg version="1.0" xmlns="http://www.w3.org/2000/svg"
 width="1360.000000pt" height="1360.000000pt" viewBox="0 0 1360.000000 1360.000000"
 preserveAspectRatio="xMidYMid meet">
<metadata>
Created by potrace 1.14, written by Peter Selinger 2001-2017
</metadata>
<g transform="translate(0.000000,1360.000000) scale(0.100000,-0.100000)"
fill="#000000" stroke="none">
<path d="M2177 9876 c-2 -6 -3 -301 -3 -654 l1 -644 83 -1 82 -2 0 35 c1 19 1
250 1 514 0 263 2 477 3 475 15 -16 156 -232 156 -239 0 -4 4 -10 8 -12 4 -1
66 -91 137 -198 71 -107 133 -196 137 -198 4 -2 8 -7 8 -12 0 -6 222 -344 235
-358 1 -2 41 -4 89 -5 70 -2 87 1 90 13 2 8 3 303 2 655 l-1 640 -84 0 -85 0
1 -508 c0 -279 -3 -504 -7 -500 -4 4 -86 125 -181 268 -95 143 -177 262 -181
263 -4 2 -8 8 -8 12 0 12 -62 104 -72 108 -4 2 -8 7 -8 12 0 8 -74 124 -105
164 -8 11 -38 56 -67 101 l-53 82 -87 0 c-56 0 -88 -3 -91 -11z"/>
<path d="M7880 9545 c-102 -57 -192 -109 -200 -115 -8 -5 -26 -16 -40 -22 -14
-7 -31 -18 -38 -25 -7 -7 -18 -13 -23 -13 -5 0 -26 -11 -47 -24 -30 -18 -385
-224 -542 -314 -66 -37 -155 -89 -220 -127 -36 -22 -67 -38 -70 -38 -3 1 -12
-4 -20 -11 -8 -7 -35 -24 -60 -37 -25 -13 -52 -29 -60 -35 -8 -6 -40 -25 -71
-42 -32 -16 -68 -37 -80 -45 -13 -8 -44 -27 -69 -41 -25 -14 -97 -55 -160 -91
-63 -36 -131 -75 -150 -86 -311 -182 -578 -332 -590 -331 -8 0 -55 19 -105 42
-49 23 -99 45 -110 50 -11 5 -60 27 -108 50 -49 22 -91 40 -93 40 -2 0 -28 11
-59 25 -30 14 -81 37 -112 51 -32 14 -114 51 -183 81 -69 30 -159 71 -200 90
-41 19 -102 46 -135 60 -33 14 -85 36 -115 50 -30 14 -156 70 -280 125 -124
54 -247 109 -275 122 -124 57 -176 79 -179 75 -2 -2 -15 -29 -28 -59 l-25 -55
46 -21 c25 -12 165 -74 311 -139 146 -64 303 -135 348 -156 46 -21 86 -39 89
-39 2 0 30 -12 61 -26 184 -85 864 -384 872 -384 6 0 10 -4 10 -10 0 -5 7 -10
15 -10 9 0 30 -8 48 -17 18 -9 34 -17 37 -18 3 0 29 -12 58 -25 l54 -24 -7
-71 c-4 -38 -9 -83 -11 -100 -2 -16 -6 -59 -9 -95 -3 -36 -7 -74 -9 -85 -2
-11 -7 -54 -11 -95 -11 -109 -12 -119 -19 -190 -4 -36 -9 -87 -12 -115 -3 -27
-7 -66 -9 -85 -3 -19 -8 -64 -11 -100 -3 -36 -7 -78 -10 -95 -2 -16 -6 -55 -9
-85 -3 -30 -7 -71 -9 -90 -3 -19 -7 -66 -11 -105 -3 -38 -8 -81 -10 -95 -2
-14 -7 -54 -10 -90 -3 -36 -7 -81 -10 -100 -2 -19 -7 -62 -10 -95 -4 -33 -8
-71 -9 -85 -2 -14 -6 -61 -10 -105 -4 -44 -9 -91 -11 -105 -3 -22 -13 -111
-20 -180 -1 -14 -6 -54 -10 -90 -8 -70 -11 -99 -19 -200 -3 -36 -6 -65 -7 -65
-2 0 -6 -41 -13 -115 -4 -36 -8 -81 -11 -100 -2 -19 -7 -64 -10 -100 -4 -36
-10 -68 -13 -71 -6 -5 -79 -21 -197 -44 -11 -2 -83 -17 -160 -34 -77 -16 -152
-32 -168 -35 -15 -2 -35 -7 -45 -10 -9 -3 -28 -7 -42 -10 -14 -2 -45 -9 -70
-15 -25 -5 -58 -12 -75 -15 -16 -3 -39 -8 -50 -10 -88 -19 -274 -59 -290 -62
-11 -2 -29 -6 -40 -8 -11 -3 -52 -11 -90 -20 -39 -8 -84 -18 -100 -21 -17 -4
-37 -8 -45 -9 -8 -1 -28 -6 -45 -9 -36 -9 -71 -16 -105 -23 -14 -3 -53 -11
-88 -19 -34 -8 -74 -17 -90 -20 -34 -6 -54 -10 -117 -25 -27 -6 -61 -13 -75
-16 -14 -2 -54 -10 -90 -18 -36 -8 -67 -15 -70 -15 -3 -1 -31 -6 -64 -13 l-58
-11 6 -53 c9 -79 12 -83 49 -73 18 4 43 10 57 13 37 6 232 47 293 61 12 3 33
7 47 10 54 10 72 14 88 19 9 3 35 8 57 12 22 3 43 8 46 10 3 2 21 6 40 9 19 3
85 17 147 31 63 13 128 27 145 30 43 8 49 9 72 17 11 3 38 8 60 12 22 3 68 12
102 20 35 8 78 17 96 20 17 3 40 8 49 11 9 3 27 7 40 9 23 5 129 28 138 30 7
2 80 17 103 21 10 2 26 5 35 8 9 3 28 7 42 10 14 2 93 18 175 36 83 17 161 34
175 36 13 3 56 12 95 20 38 9 78 17 88 19 48 10 57 17 58 43 2 46 8 105 24
252 5 45 15 144 20 195 6 65 15 143 20 175 2 14 6 54 10 90 3 36 7 84 10 108
11 109 17 160 20 201 3 24 7 60 9 80 3 20 8 70 12 111 3 41 8 84 10 95 2 11 7
52 10 90 3 39 7 86 9 105 3 19 7 60 10 90 3 30 7 69 9 85 2 17 7 64 11 105 9
94 11 110 20 190 4 36 9 81 11 100 5 55 12 130 19 190 4 30 8 71 10 90 11 121
17 176 21 193 2 11 6 54 9 96 4 42 8 85 9 96 2 11 6 56 11 100 4 44 9 87 11
95 1 8 3 25 3 36 1 14 13 28 34 38 17 9 48 26 67 37 175 104 220 129 229 129
5 0 11 3 13 8 2 6 171 106 263 156 11 6 22 13 25 16 3 3 23 14 45 25 22 11 42
22 45 26 3 3 43 27 90 54 47 26 103 59 125 72 22 13 52 29 68 35 15 7 27 16
27 20 0 4 4 8 9 8 4 0 59 29 120 65 62 36 116 65 122 65 5 0 9 3 9 8 0 4 10
12 23 18 12 6 60 33 107 60 98 58 80 47 275 160 83 48 165 95 183 105 39 23
51 30 281 163 101 58 188 106 192 106 5 0 9 4 9 9 0 5 10 13 22 17 11 3 54 26
94 51 82 49 78 50 189 -15 159 -93 286 -167 330 -192 28 -15 91 -52 140 -81
103 -60 130 -75 251 -144 48 -27 99 -57 113 -65 30 -18 134 -78 172 -100 125
-72 317 -183 329 -190 8 -5 67 -39 130 -75 63 -36 122 -70 130 -75 15 -9 63
-37 165 -95 28 -16 62 -35 77 -44 96 -57 139 -81 148 -81 5 0 10 -4 10 -10 0
-5 4 -10 9 -10 5 0 44 -20 85 -45 42 -25 81 -45 86 -45 6 0 10 -4 10 -10 0 -5
5 -10 10 -10 6 0 40 -18 76 -40 36 -22 68 -40 70 -40 2 0 26 -13 52 -30 l49
-30 0 -1104 c0 -607 3 -1107 6 -1113 4 -7 87 -10 117 -4 3 1 6 518 6 1149 l0
1149 -215 124 c-118 68 -231 133 -250 144 -20 11 -37 23 -39 28 -2 4 -8 7 -14
7 -5 0 -64 32 -131 71 -67 40 -142 83 -167 97 -25 13 -85 48 -135 77 -49 29
-106 62 -125 73 -19 10 -75 43 -123 71 -49 28 -93 51 -98 51 -5 0 -9 5 -9 10
0 6 -4 10 -9 10 -9 0 -106 53 -161 88 -14 9 -28 15 -32 14 -5 -1 -8 3 -8 8 0
6 -4 10 -9 10 -5 0 -70 36 -145 80 -76 44 -139 80 -142 80 -3 0 -25 14 -49 30
-24 17 -46 30 -49 30 -4 0 -39 20 -79 44 -39 24 -99 59 -132 77 -34 19 -139
79 -234 134 -95 55 -189 109 -209 121 -20 11 -54 30 -75 42 -21 12 -39 22 -40
22 -1 0 -85 -47 -187 -105z"/>
<path d="M1859 8467 c-46 -50 -95 -104 -109 -119 -14 -14 -52 -57 -85 -94 -33
-36 -71 -79 -85 -94 -14 -15 -56 -63 -95 -106 -38 -43 -95 -105 -125 -139
-130 -142 -132 -144 -230 -255 -41 -46 -82 -91 -90 -100 -8 -9 -46 -51 -85
-94 -120 -133 -251 -278 -322 -355 -23 -25 -43 -48 -43 -52 0 -3 25 -47 55
-98 30 -51 55 -95 55 -98 0 -3 8 -17 19 -31 10 -15 32 -52 49 -82 16 -30 60
-107 97 -170 37 -63 76 -131 87 -150 45 -78 216 -374 295 -508 45 -78 83 -147
83 -152 0 -6 5 -10 10 -10 6 0 10 -4 10 -10 0 -9 285 -506 301 -524 4 -4 32 6
62 23 l56 32 -60 99 c-32 55 -59 105 -59 110 0 6 -4 10 -9 10 -5 0 -14 12 -20
28 -6 15 -19 41 -29 57 -9 17 -37 64 -61 105 -24 41 -51 86 -59 100 -9 14 -17
32 -19 40 -1 8 -7 16 -12 18 -6 2 -11 10 -11 18 0 8 -4 14 -10 14 -5 0 -10 5
-10 10 0 9 -121 223 -169 300 -8 14 -16 27 -16 30 -1 6 -73 130 -117 201 -15
25 -28 51 -28 57 0 5 -4 12 -8 14 -4 2 -34 50 -67 108 -33 57 -64 112 -70 121
-5 10 -17 30 -26 46 -9 15 -25 45 -37 66 -12 20 -30 52 -41 70 -10 17 -33 56
-50 86 -35 59 -37 52 24 116 19 21 145 161 175 195 13 15 127 141 189 209 12
14 53 59 90 100 36 41 82 91 101 112 19 21 60 66 90 100 30 34 64 72 75 83 11
12 60 66 110 121 49 55 94 105 100 111 5 6 42 46 80 89 39 43 91 101 116 129
25 28 60 67 76 86 l30 35 -47 42 -48 43 -83 -93z"/>
<path d="M2219 8192 c-30 -31 -81 -88 -114 -125 -33 -38 -73 -83 -90 -101 -16
-17 -66 -72 -110 -121 -44 -49 -91 -101 -105 -116 -14 -15 -49 -54 -78 -87
-29 -33 -63 -71 -75 -84 -12 -14 -53 -60 -92 -103 -38 -44 -86 -95 -105 -116
-19 -20 -46 -50 -60 -67 -27 -32 -162 -183 -194 -215 -18 -19 -17 -20 28 -64
l46 -44 38 39 c20 21 66 71 102 111 36 40 74 83 85 95 11 12 54 60 95 106 77
86 123 137 226 250 68 76 194 215 221 246 34 39 158 177 173 193 9 9 49 53 90
99 l74 84 -44 39 c-25 21 -48 39 -51 39 -3 0 -30 -26 -60 -58z"/>
<path d="M4899 7778 c0 -7 -2 -22 -3 -33 -2 -11 -6 -56 -10 -101 -4 -45 -8
-90 -10 -100 -2 -10 -7 -55 -10 -99 -4 -44 -9 -93 -12 -110 -2 -16 -6 -50 -9
-75 -2 -25 -6 -67 -9 -95 -3 -27 -8 -75 -11 -105 -3 -30 -8 -67 -10 -81 -3
-15 -7 -55 -9 -90 -4 -60 -7 -87 -22 -206 -3 -27 -7 -66 -9 -88 -2 -22 -6 -62
-9 -90 -3 -27 -8 -75 -11 -105 -3 -30 -7 -75 -10 -100 -3 -25 -8 -65 -10 -90
-3 -24 -7 -67 -11 -95 -6 -53 -8 -75 -18 -195 -4 -41 -9 -86 -11 -100 -3 -14
-7 -52 -10 -85 -3 -33 -7 -76 -10 -95 -3 -19 -8 -69 -11 -110 -3 -41 -8 -78
-11 -82 -2 -5 11 -8 29 -8 18 -1 49 -3 69 -6 25 -4 36 -1 36 8 1 20 12 136 20
198 3 30 7 69 8 85 1 17 3 30 4 30 1 0 4 23 6 50 2 28 8 95 14 150 6 55 14
120 16 145 3 25 8 68 11 95 3 28 7 69 9 92 2 23 6 63 9 90 6 50 15 133 21 193
1 19 6 58 9 85 8 69 14 127 21 210 4 39 8 81 10 95 2 14 7 57 11 95 3 39 8 84
10 100 2 17 6 55 9 85 2 30 7 73 9 95 3 22 8 67 12 100 3 33 7 72 9 88 8 62
18 185 19 222 l1 40 -62 3 c-47 2 -63 0 -64 -10z"/>
<path d="M10162 5000 c0 -349 1 -644 3 -655 4 -19 12 -21 82 -20 l78 0 5 509
5 509 95 -144 c52 -79 97 -146 100 -149 3 -3 59 -86 124 -185 66 -99 123 -181
128 -183 4 -2 8 -8 8 -13 0 -11 219 -339 228 -340 23 -4 172 -4 173 1 5 34 3
1279 -2 1290 -6 12 -23 15 -76 14 -37 -1 -72 -2 -78 -3 -7 -1 -10 -177 -10
-506 1 -278 -2 -505 -5 -504 -6 0 -323 475 -329 493 -2 6 -7 13 -11 16 -3 3
-80 115 -170 250 -89 135 -165 247 -167 250 -2 2 -44 5 -92 5 l-88 0 -1 -635z"/>
<path d="M11494 5625 c-2 -5 -3 -300 -2 -655 l3 -644 82 -1 c51 -1 84 3 86 9
2 6 3 145 3 309 l-1 297 35 1 c156 3 632 0 636 -3 2 -3 6 -142 7 -309 l2 -304
78 0 c43 0 81 2 85 5 10 7 10 1293 0 1300 -6 5 -103 5 -155 1 -9 -1 -12 -68
-12 -262 0 -144 -2 -264 -5 -267 -11 -10 -658 -8 -664 3 -4 6 -7 120 -8 255
-1 135 -2 252 -3 260 -1 13 -17 15 -82 15 -45 0 -83 -4 -85 -10z"/>
<path d="M357 5022 c-16 -3 -17 -57 -17 -657 l0 -654 87 2 87 2 1 305 0 305
338 2 337 2 0 -309 0 -309 87 2 88 2 0 649 c0 540 -2 649 -14 654 -12 4 -69 6
-138 3 l-23 -1 0 -268 0 -268 -332 2 c-183 1 -336 2 -339 3 -3 0 -5 120 -5
266 l1 265 -30 1 c-16 0 -48 1 -71 2 -22 1 -48 1 -57 -1z"/>
<path d="M1693 5022 l-43 -3 0 -654 0 -653 84 0 84 1 0 505 c1 277 3 506 5
508 2 2 28 -34 58 -81 30 -47 57 -85 61 -85 5 0 8 -5 8 -10 0 -13 141 -224
152 -228 4 -2 8 -8 8 -13 0 -9 258 -399 271 -409 3 -3 8 -10 10 -16 2 -5 28
-46 58 -91 l54 -81 83 0 c50 0 86 4 91 10 8 14 10 1288 2 1293 -6 4 -108 8
-144 6 -20 -1 -20 -8 -20 -506 0 -278 -2 -505 -3 -505 -8 0 -41 46 -42 58 0 6
-4 12 -10 12 -5 0 -10 6 -10 14 0 8 -3 16 -8 18 -9 4 -212 307 -212 317 0 4
-9 16 -20 26 -11 10 -20 24 -20 31 0 7 -4 14 -8 16 -10 4 -72 96 -72 108 0 4
-4 10 -8 12 -4 2 -66 90 -136 196 -71 106 -133 195 -138 198 -11 7 -81 10
-135 6z"/>
<path d="M12833 4951 c-29 -10 -60 -24 -70 -31 -44 -33 -76 -67 -90 -95 -22
-41 -44 -128 -35 -136 4 -4 30 -10 59 -14 47 -6 52 -4 59 17 4 13 7 26 6 31
-4 13 35 81 56 100 56 51 177 57 240 13 51 -35 74 -78 74 -135 0 -91 -61 -176
-237 -326 -180 -153 -266 -261 -281 -351 l-6 -41 326 0 326 0 0 58 0 57 -236
0 c-129 0 -237 2 -240 5 -7 6 96 110 166 167 30 25 99 88 152 141 121 118 153
178 153 284 0 116 -55 200 -164 248 -62 27 -188 31 -258 8z"/>
</g>
</svg>
